# xmcd
#
# Track frame offsets:
#	150
#	14334
#	26716
#	37198
#	50992
#	64779
#	78531
#	91622
#	109455
#	121837
#	131850
#	143097
#	149775
#	161208
#	173550
#	191036
#	202361
#	218542
#
# Disc length: 3057 seconds
#
# Revision: 0
# Processed by: cddbd v1.5.2PL0 Copyright (c) Steve Scherf et al.
# Submitted via: dBpowerAMP V4.0
#
DISCID=1b0bef12
DTITLE=Cowboy Billie Boek - De Leukste Liedjes
DYEAR=2002
DGENRE=Nederlandstalig
TTITLE0=Cowboy Billie Boem
TTITLE1=Papegaaitje leef je nog?
TTITLE2=Roodborstje
TTITLE3=De wielen van de bus
TTITLE4=Drie kleine kleutertjes
TTITLE5=Twee beren
TTITLE6=Pleisterlied
TTITLE7=Naar de speeltuin
TTITLE8=Die domme Billie
TTITLE9=Hikkerie dikkerie dok
TTITLE10=Op een grote paddenstoel
TTITLE11=Hoedje van papier
TTITLE12=Ze kunnen kletsen wat ze willen
TTITLE13=De poppenkraam
TTITLE14=Berend Botje
TTITLE15=Hip hop
TTITLE16=Feest in de ouwe koeienstal
TTITLE17=Cowboy Billie Boem (met zijn mondharmonica)
EXTD=
EXTT0=
EXTT1=
EXTT2=
EXTT3=
EXTT4=
EXTT5=
EXTT6=
EXTT7=
EXTT8=
EXTT9=
EXTT10=
EXTT11=
EXTT12=
EXTT13=
EXTT14=
EXTT15=
EXTT16=
EXTT17=
PLAYORDER=
